<svg xmlns="http://www.w3.org/2000/svg" width="201.864" height="54.27" fill="none"><path d="M 18.09 18.09 L 0 18.09 L 0 36.18 L 18.09 54.27 L 18.09 36.18 L 36.18 36.18 L 18.09 18.09 L 36.18 18.09 L 36.18 0 L 0 0 Z M 63.687 42.099 L 69.727 42.099 L 69.727 29.085 L 84.118 29.085 L 84.118 24.019 L 69.727 24.019 L 69.727 15.849 L 85.194 15.849 L 85.194 10.663 L 63.687 10.663 Z M 98.661 19.628 C 97.194 19.628 96.028 19.959 95.153 20.623 C 94.279 21.286 93.646 22.271 93.234 23.577 L 93.174 23.577 L 93.174 19.819 L 87.606 19.819 L 87.606 42.099 L 93.385 42.099 L 93.385 29.758 C 93.385 28.602 93.576 27.648 93.968 26.874 C 94.359 26.11 94.882 25.537 95.565 25.155 C 96.249 24.773 97.003 24.582 97.847 24.582 C 98.713 24.578 99.578 24.618 100.44 24.703 L 100.44 19.698 C 100.219 19.688 99.957 19.668 99.656 19.648 C 99.364 19.628 99.033 19.618 98.661 19.618 Z M 118.067 22.904 L 118.007 22.904 C 117.555 22.12 116.992 21.467 116.319 20.944 C 115.645 20.422 114.892 20.03 114.047 19.758 C 113.213 19.487 112.309 19.356 111.334 19.356 C 109.434 19.356 107.756 19.849 106.309 20.824 C 104.862 21.798 103.726 23.155 102.922 24.894 C 102.118 26.633 101.706 28.643 101.706 30.934 C 101.706 33.225 102.108 35.286 102.912 37.034 C 103.716 38.783 104.842 40.14 106.289 41.105 C 107.736 42.069 109.434 42.562 111.374 42.562 C 112.349 42.562 113.253 42.421 114.088 42.13 C 114.922 41.838 115.675 41.416 116.349 40.863 C 117.022 40.311 117.565 39.607 118.007 38.763 L 118.087 38.763 L 118.087 42.099 L 123.726 42.099 L 123.726 19.819 L 118.067 19.819 Z M 117.615 34.572 C 117.153 35.597 116.52 36.391 115.696 36.954 C 114.871 37.517 113.907 37.798 112.791 37.798 C 111.746 37.798 110.831 37.527 110.047 36.994 C 109.264 36.461 108.651 35.678 108.208 34.662 C 107.776 33.647 107.555 32.401 107.555 30.934 C 107.555 29.467 107.776 28.21 108.208 27.195 C 108.64 26.18 109.254 25.406 110.047 24.874 C 110.841 24.341 111.746 24.07 112.791 24.07 C 113.907 24.07 114.871 24.351 115.696 24.914 C 116.52 25.477 117.163 26.271 117.615 27.296 C 118.077 28.321 118.299 29.537 118.299 30.924 C 118.299 32.311 118.067 33.527 117.615 34.552 Z M 157.544 20.291 C 156.418 19.678 155.152 19.376 153.745 19.376 C 152.509 19.376 151.373 19.597 150.348 20.03 C 149.323 20.462 148.449 21.085 147.735 21.899 C 147.273 22.422 146.911 23.004 146.63 23.638 C 146.263 22.521 145.566 21.543 144.63 20.834 C 143.373 19.859 141.896 19.376 140.198 19.376 C 139.152 19.376 138.167 19.567 137.223 19.959 C 136.278 20.341 135.454 20.944 134.74 21.738 C 134.228 22.311 133.806 22.994 133.464 23.778 L 133.464 19.819 L 127.896 19.819 L 127.896 42.099 L 133.675 42.099 L 133.675 28.864 C 133.675 27.849 133.866 26.994 134.248 26.301 C 134.63 25.607 135.142 25.075 135.776 24.723 C 136.419 24.361 137.112 24.18 137.876 24.18 C 139.032 24.18 139.966 24.532 140.68 25.246 C 141.393 25.959 141.755 26.914 141.755 28.1 L 141.755 42.089 L 147.343 42.089 L 147.343 28.542 C 147.343 27.688 147.514 26.924 147.846 26.261 C 148.177 25.597 148.66 25.085 149.273 24.723 C 149.886 24.361 150.619 24.17 151.474 24.17 C 152.559 24.17 153.484 24.502 154.257 25.175 C 155.031 25.839 155.413 26.884 155.413 28.311 L 155.413 42.089 L 161.172 42.089 L 161.172 27.356 C 161.172 25.627 160.84 24.17 160.187 22.974 C 159.534 21.788 158.639 20.884 157.514 20.271 Z M 182.99 22.542 C 182.037 21.515 180.876 20.703 179.583 20.16 C 178.257 19.598 176.779 19.316 175.151 19.316 C 173.041 19.316 171.172 19.819 169.554 20.814 C 167.925 21.809 166.659 23.195 165.735 24.954 C 164.81 26.713 164.348 28.723 164.348 30.984 C 164.348 33.245 164.8 35.235 165.694 36.984 C 166.599 38.733 167.875 40.11 169.523 41.105 C 171.172 42.099 173.121 42.602 175.362 42.602 C 177.131 42.602 178.749 42.28 180.217 41.647 C 181.684 41.014 182.89 40.14 183.855 39.024 C 184.819 37.909 185.443 36.612 185.724 35.155 L 180.387 35.155 C 180.186 35.748 179.875 36.27 179.433 36.723 C 178.99 37.175 178.448 37.537 177.784 37.788 C 177.121 38.039 176.367 38.17 175.523 38.17 C 174.337 38.17 173.342 37.919 172.518 37.406 C 171.694 36.904 171.061 36.19 170.629 35.276 C 170.237 34.451 170.026 33.497 169.986 32.431 L 185.945 32.431 L 185.945 30.874 C 185.945 29.175 185.684 27.617 185.171 26.2 C 184.659 24.783 183.925 23.567 182.98 22.542 Z M 170.036 28.622 C 170.126 27.839 170.317 27.125 170.629 26.502 C 171.061 25.638 171.674 24.964 172.468 24.492 C 173.262 24.02 174.197 23.788 175.262 23.788 C 176.327 23.788 177.302 24.02 178.086 24.492 C 178.87 24.964 179.483 25.628 179.915 26.502 C 180.227 27.125 180.418 27.839 180.508 28.622 L 170.046 28.622 Z M 201.09 19.658 C 200.799 19.638 200.467 19.628 200.096 19.628 C 198.628 19.628 197.462 19.959 196.588 20.623 C 195.714 21.286 195.081 22.271 194.669 23.577 L 194.608 23.577 L 194.608 19.819 L 189.041 19.819 L 189.041 42.099 L 194.819 42.099 L 194.819 29.758 C 194.819 28.602 195.01 27.648 195.402 26.874 C 195.784 26.11 196.317 25.537 196.99 25.155 C 197.663 24.773 198.427 24.582 199.271 24.582 C 200.137 24.578 201.003 24.618 201.864 24.703 L 201.864 19.698 C 201.643 19.688 201.382 19.668 201.08 19.648 Z" fill="rgb(255,255,255)"></path></svg>
