<svg xmlns="http://www.w3.org/2000/svg" width="201" height="54" fill="none"><g fill="#000" clip-path="url(#a)"><path d="M18 18H0v18l18 18V36h18L18 18h18V0H0l18 18ZM63.37 41.89h6.01V28.94H83.7V23.9H69.38v-8.13h15.39v-5.16h-21.4v31.28ZM98.17 19.53c-1.46 0-2.62.33-3.49.99-.87.66-1.5 1.64-1.91 2.94h-.06v-3.74h-5.54v22.17h5.75V29.61c0-1.15.19-2.1.58-2.87.39-.76.91-1.33 1.59-1.71.68-.38 1.43-.57 2.27-.57a25.156 25.156 0 0 1 2.58.12V19.6c-.22-.01-.48-.03-.78-.05-.29-.02-.62-.03-.99-.03v.01ZM117.48 22.79h-.06a6.626 6.626 0 0 0-1.68-1.95 7.27 7.27 0 0 0-2.26-1.18c-.83-.27-1.73-.4-2.7-.4-1.89 0-3.56.49-5 1.46s-2.57 2.32-3.37 4.05c-.8 1.73-1.21 3.73-1.21 6.01s.4 4.33 1.2 6.07c.8 1.74 1.92 3.09 3.36 4.05s3.13 1.45 5.06 1.45c.97 0 1.87-.14 2.7-.43.83-.29 1.58-.71 2.25-1.26.67-.55 1.21-1.25 1.65-2.09h.08v3.32h5.61V19.72h-5.63v3.07Zm-.45 11.61c-.46 1.02-1.09 1.81-1.91 2.37-.82.56-1.78.84-2.89.84-1.04 0-1.95-.27-2.73-.8s-1.39-1.31-1.83-2.32c-.43-1.01-.65-2.25-.65-3.71s.22-2.71.65-3.72c.43-1.01 1.04-1.78 1.83-2.31s1.69-.8 2.73-.8c1.11 0 2.07.28 2.89.84.82.56 1.46 1.35 1.91 2.37.46 1.02.68 2.23.68 3.61s-.23 2.59-.68 3.61v.02ZM156.76 20.19c-1.12-.61-2.38-.91-3.78-.91-1.23 0-2.36.22-3.38.65a7.052 7.052 0 0 0-2.6 1.86c-.46.52-.82 1.1-1.1 1.73a5.753 5.753 0 0 0-1.99-2.79c-1.25-.97-2.72-1.45-4.41-1.45-1.04 0-2.02.19-2.96.58-.94.38-1.76.98-2.47 1.77-.51.57-.93 1.25-1.27 2.03v-3.94h-5.54v22.17h5.75V28.72c0-1.01.19-1.86.57-2.55.38-.69.89-1.22 1.52-1.57.64-.36 1.33-.54 2.09-.54 1.15 0 2.08.35 2.79 1.06.71.71 1.07 1.66 1.07 2.84v13.92h5.56V28.4c0-.85.17-1.61.5-2.27.33-.66.81-1.17 1.42-1.53.61-.36 1.34-.55 2.19-.55 1.08 0 2 .33 2.77 1 .77.66 1.15 1.7 1.15 3.12v13.71h5.73V27.22c0-1.72-.33-3.17-.98-4.36-.65-1.18-1.54-2.08-2.66-2.69l.03.02ZM182.08 22.43a9.792 9.792 0 0 0-3.39-2.37c-1.32-.56-2.79-.84-4.41-.84-2.1 0-3.96.5-5.57 1.49-1.62.99-2.88 2.37-3.8 4.12-.92 1.75-1.38 3.75-1.38 6s.45 4.23 1.34 5.97c.9 1.74 2.17 3.11 3.81 4.1 1.64.99 3.58 1.49 5.81 1.49 1.76 0 3.37-.32 4.83-.95 1.46-.63 2.66-1.5 3.62-2.61.96-1.11 1.58-2.4 1.86-3.85h-5.31c-.2.59-.51 1.11-.95 1.56-.44.45-.98.81-1.64 1.06-.66.25-1.41.38-2.25.38-1.18 0-2.17-.25-2.99-.76-.82-.5-1.45-1.21-1.88-2.12-.39-.82-.6-1.77-.64-2.83h15.88v-1.55c0-1.69-.26-3.24-.77-4.65-.51-1.41-1.24-2.62-2.18-3.64h.01Zm-12.89 6.05c.09-.78.28-1.49.59-2.11.43-.86 1.04-1.53 1.83-2s1.72-.7 2.78-.7c1.06 0 2.03.23 2.81.7.78.47 1.39 1.13 1.82 2 .31.62.5 1.33.59 2.11h-10.42ZM200.09 19.56c-.29-.02-.62-.03-.99-.03-1.46 0-2.62.33-3.49.99-.87.66-1.5 1.64-1.91 2.94h-.06v-3.74h-5.54v22.17h5.75V29.61c0-1.15.19-2.1.58-2.87.38-.76.91-1.33 1.58-1.71.67-.38 1.43-.57 2.27-.57a25.156 25.156 0 0 1 2.58.12V19.6c-.22-.01-.48-.03-.78-.05l.01.01Z"/></g><defs><clipPath id="a"><path fill="#fff" d="M0 0h200.87v54H0z"/></clipPath></defs></svg>
